<?xml version="1.0" encoding="UTF-8"?>
<!DOCTYPE svg PUBLIC "-//W3C//DTD SVG 1.1//EN" "http://www.w3.org/Graphics/SVG/1.1/DTD/svg11.dtd">
<svg xmlns="http://www.w3.org/2000/svg" version="1.1" width="4096px" height="4096px" style="shape-rendering:geometricPrecision; text-rendering:geometricPrecision; image-rendering:optimizeQuality; fill-rule:evenodd; clip-rule:evenodd" xmlns:xlink="http://www.w3.org/1999/xlink">
<g><path style="opacity:0.999" fill="#2972fe" d="M 1989.5,89.5 C 2425.72,80.2133 2822.05,199.713 3178.5,448C 3492.5,673.357 3722.33,965.19 3868,1323.5C 3997.34,1654.85 4035.67,1996.52 3983,2348.5C 3923.25,2717.58 3772.91,3043.25 3532,3325.5C 3296.24,3596.54 3007.74,3790.04 2666.5,3906C 2382.85,3999.23 2092.85,4027.23 1796.5,3990C 1404.58,3936.97 1059.91,3782.31 762.5,3526C 472.968,3271.31 273.468,2958.15 164,2586.5C 75.0153,2267.91 65.3486,1946.91 135,1623.5C 223.893,1235.45 410.726,904.287 695.5,630C 978.491,362.659 1312.82,192.659 1698.5,120C 1794.94,102.957 1891.94,92.7905 1989.5,89.5 Z"/></g>
<g><path style="opacity:1" fill="#000000" d="M 3262.5,1397.5 C 3170.17,1397.5 3077.83,1397.5 2985.5,1397.5C 2985.17,1763.33 2985.5,2129 2986.5,2494.5C 3043.5,2494.5 3100.5,2494.5 3157.5,2494.5C 3157.5,2582.17 3157.5,2669.83 3157.5,2757.5C 3219.17,2757.5 3280.83,2757.5 3342.5,2757.5C 3342.5,2908.83 3342.5,3060.17 3342.5,3211.5C 2482.5,3211.5 1622.5,3211.5 762.5,3211.5C 762.5,3060.17 762.5,2908.83 762.5,2757.5C 823.833,2757.5 885.167,2757.5 946.5,2757.5C 946.5,2669.83 946.5,2582.17 946.5,2494.5C 1006.83,2494.5 1067.17,2494.5 1127.5,2494.5C 1128.5,2129 1128.83,1763.33 1128.5,1397.5C 1036.17,1397.5 943.833,1397.5 851.5,1397.5C 851.5,1277.5 851.5,1157.5 851.5,1037.5C 954.834,1037.67 1058.17,1037.5 1161.5,1037C 1460.5,900.5 1759.5,764 2058.5,627.5C 2356.38,763.941 2654.38,900.107 2952.5,1036C 3055.78,1037.49 3159.11,1037.99 3262.5,1037.5C 3262.5,1157.5 3262.5,1277.5 3262.5,1397.5 Z"/></g>
<g><path style="opacity:1" fill="#fefefe" d="M 2057.5,762.5 C 2258.18,853.898 2458.85,945.398 2659.5,1037C 2258.5,1037.67 1857.5,1037.67 1456.5,1037C 1657.15,945.962 1857.48,854.462 2057.5,762.5 Z"/></g>
<g><path style="opacity:1" fill="#a0a0a0" d="M 974.5,1160.5 C 974.5,1198.5 974.5,1236.5 974.5,1274.5C 1696.17,1274.5 2417.83,1274.5 3139.5,1274.5C 3139.5,1236.5 3139.5,1198.5 3139.5,1160.5C 3140.5,1198.66 3140.83,1237 3140.5,1275.5C 2418.17,1275.5 1695.83,1275.5 973.5,1275.5C 973.168,1237 973.501,1198.66 974.5,1160.5 Z"/></g>
<g><path style="opacity:1" fill="#fefffe" d="M 974.5,1160.5 C 1696.17,1160.5 2417.83,1160.5 3139.5,1160.5C 3139.5,1198.5 3139.5,1236.5 3139.5,1274.5C 2417.83,1274.5 1696.17,1274.5 974.5,1274.5C 974.5,1236.5 974.5,1198.5 974.5,1160.5 Z"/></g>
<g><path style="opacity:1" fill="#153c85" d="M 851.5,1037.5 C 851.5,1157.5 851.5,1277.5 851.5,1397.5C 943.833,1397.5 1036.17,1397.5 1128.5,1397.5C 1128.83,1763.33 1128.5,2129 1127.5,2494.5C 1127.5,2129.17 1127.5,1763.83 1127.5,1398.5C 1035.17,1398.5 942.833,1398.5 850.5,1398.5C 850.167,1278 850.5,1157.67 851.5,1037.5 Z"/></g>
<g><path style="opacity:1" fill="#fdfdfd" d="M 1250.5,1398.5 C 1294.17,1398.5 1337.83,1398.5 1381.5,1398.5C 1381.5,1763.83 1381.5,2129.17 1381.5,2494.5C 1337.83,2494.5 1294.17,2494.5 1250.5,2494.5C 1250.5,2129.17 1250.5,1763.83 1250.5,1398.5 Z"/></g>
<g><path style="opacity:1" fill="#163d89" d="M 1621.5,2494.5 C 1621.5,2129.17 1621.5,1763.83 1621.5,1398.5C 1582.5,1398.5 1543.5,1398.5 1504.5,1398.5C 1504.5,1763.83 1504.5,2129.17 1504.5,2494.5C 1503.5,2129 1503.17,1763.33 1503.5,1397.5C 1543.17,1397.5 1582.83,1397.5 1622.5,1397.5C 1622.83,1763.33 1622.5,2129 1621.5,2494.5 Z"/></g>
<g><path style="opacity:1" fill="#2a72ff" d="M 1621.5,2494.5 C 1582.5,2494.5 1543.5,2494.5 1504.5,2494.5C 1504.5,2129.17 1504.5,1763.83 1504.5,1398.5C 1543.5,1398.5 1582.5,1398.5 1621.5,1398.5C 1621.5,1763.83 1621.5,2129.17 1621.5,2494.5 Z"/></g>
<g><path style="opacity:1" fill="#fdfdfd" d="M 1744.5,1398.5 C 1788.17,1398.5 1831.83,1398.5 1875.5,1398.5C 1875.5,1763.83 1875.5,2129.17 1875.5,2494.5C 1831.83,2494.5 1788.17,2494.5 1744.5,2494.5C 1744.5,2129.17 1744.5,1763.83 1744.5,1398.5 Z"/></g>
<g><path style="opacity:1" fill="#184394" d="M 2115.5,2494.5 C 2115.5,2129.17 2115.5,1763.83 2115.5,1398.5C 2076.5,1398.5 2037.5,1398.5 1998.5,1398.5C 1998.5,1763.83 1998.5,2129.17 1998.5,2494.5C 1997.5,2129 1997.17,1763.33 1997.5,1397.5C 2037.17,1397.5 2076.83,1397.5 2116.5,1397.5C 2116.83,1763.33 2116.5,2129 2115.5,2494.5 Z"/></g>
<g><path style="opacity:1" fill="#2a72ff" d="M 2115.5,2494.5 C 2076.5,2494.5 2037.5,2494.5 1998.5,2494.5C 1998.5,2129.17 1998.5,1763.83 1998.5,1398.5C 2037.5,1398.5 2076.5,1398.5 2115.5,1398.5C 2115.5,1763.83 2115.5,2129.17 2115.5,2494.5 Z"/></g>
<g><path style="opacity:1" fill="#fdfdfd" d="M 2238.5,1398.5 C 2282.17,1398.5 2325.83,1398.5 2369.5,1398.5C 2369.5,1763.83 2369.5,2129.17 2369.5,2494.5C 2325.83,2494.5 2282.17,2494.5 2238.5,2494.5C 2238.5,2129.17 2238.5,1763.83 2238.5,1398.5 Z"/></g>
<g><path style="opacity:1" fill="#173f8b" d="M 2609.5,2494.5 C 2609.5,2129.17 2609.5,1763.83 2609.5,1398.5C 2570.5,1398.5 2531.5,1398.5 2492.5,1398.5C 2492.5,1763.83 2492.5,2129.17 2492.5,2494.5C 2491.5,2129 2491.17,1763.33 2491.5,1397.5C 2531.17,1397.5 2570.83,1397.5 2610.5,1397.5C 2610.83,1763.33 2610.5,2129 2609.5,2494.5 Z"/></g>
<g><path style="opacity:1" fill="#2a72ff" d="M 2609.5,2494.5 C 2570.5,2494.5 2531.5,2494.5 2492.5,2494.5C 2492.5,2129.17 2492.5,1763.83 2492.5,1398.5C 2531.5,1398.5 2570.5,1398.5 2609.5,1398.5C 2609.5,1763.83 2609.5,2129.17 2609.5,2494.5 Z"/></g>
<g><path style="opacity:1" fill="#fdfdfd" d="M 2732.5,1398.5 C 2776.17,1398.5 2819.83,1398.5 2863.5,1398.5C 2863.5,1763.83 2863.5,2129.17 2863.5,2494.5C 2819.83,2494.5 2776.17,2494.5 2732.5,2494.5C 2732.5,2129.17 2732.5,1763.83 2732.5,1398.5 Z"/></g>
<g><path style="opacity:1" fill="#184293" d="M 3262.5,1397.5 C 3170.67,1398.5 3078.67,1398.83 2986.5,1398.5C 2986.5,1763.83 2986.5,2129.17 2986.5,2494.5C 2985.5,2129 2985.17,1763.33 2985.5,1397.5C 3077.83,1397.5 3170.17,1397.5 3262.5,1397.5 Z"/></g>
<g><path style="opacity:1" fill="#19459b" d="M 946.5,2494.5 C 946.5,2582.17 946.5,2669.83 946.5,2757.5C 885.167,2757.5 823.833,2757.5 762.5,2757.5C 823.331,2756.5 884.331,2756.17 945.5,2756.5C 945.167,2669 945.501,2581.67 946.5,2494.5 Z"/></g>
<g><path style="opacity:1" fill="#fefffe" d="M 1069.5,2617.5 C 1724.5,2617.5 2379.5,2617.5 3034.5,2617.5C 3034.5,2663.83 3034.5,2710.17 3034.5,2756.5C 2379.5,2756.5 1724.5,2756.5 1069.5,2756.5C 1069.5,2710.17 1069.5,2663.83 1069.5,2617.5 Z"/></g>
<g><path style="opacity:1" fill="#a8a8a8" d="M 1069.5,2617.5 C 1069.5,2663.83 1069.5,2710.17 1069.5,2756.5C 1724.5,2756.5 2379.5,2756.5 3034.5,2756.5C 2379.33,2757.5 1724,2757.83 1068.5,2757.5C 1068.17,2710.66 1068.5,2664 1069.5,2617.5 Z"/></g>
<g><path style="opacity:1" fill="#727272" d="M 885.5,2880.5 C 1663.67,2879.5 2442,2879.17 3220.5,2879.5C 3220.83,2949.34 3220.5,3019 3219.5,3088.5C 3219.5,3019.17 3219.5,2949.83 3219.5,2880.5C 2441.5,2880.5 1663.5,2880.5 885.5,2880.5 Z"/></g>
<g><path style="opacity:1" fill="#fefffe" d="M 885.5,2880.5 C 1663.5,2880.5 2441.5,2880.5 3219.5,2880.5C 3219.5,2949.83 3219.5,3019.17 3219.5,3088.5C 2441.5,3088.5 1663.5,3088.5 885.5,3088.5C 885.5,3019.17 885.5,2949.83 885.5,2880.5 Z"/></g>
</svg>
